<svg xmlns="http://www.w3.org/2000/svg" x="0px" y="0px"
     width="12" height="12"
     viewBox="0 0 50 50"><g id="surface1"><path style=" " d="M 40.953125 25.921875 C 40.015625 24.554688 38.730469 23.476563 37.117188 22.703125 C 38.113281 22 38.925781 21.1875 39.550781 20.273438 C 40.542969 18.816406 41.046875 16.992188 41.046875 14.851563 C 41.046875 12.90625 40.710938 11.234375 40.054688 9.878906 C 39.386719 8.5 38.429688 7.378906 37.210938 6.546875 C 36.027344 5.738281 34.601563 5.148438 32.964844 4.800781 C 31.390625 4.464844 29.628906 4.292969 27.734375 4.292969 L 9.589844 4.292969 C 9.039063 4.292969 8.589844 4.738281 8.589844 5.292969 L 8.589844 43.847656 C 8.589844 44.398438 9.039063 44.847656 9.589844 44.847656 L 28.273438 44.847656 C 30.082031 44.847656 31.867188 44.617188 33.578125 44.164063 C 35.324219 43.703125 36.902344 42.980469 38.273438 42.019531 C 39.675781 41.03125 40.804688 39.742188 41.632813 38.1875 C 42.460938 36.628906 42.882813 34.769531 42.882813 32.671875 C 42.882813 30.066406 42.230469 27.796875 40.953125 25.921875 Z M 18.066406 11.878906 L 26.007813 11.878906 C 26.761719 11.878906 27.492188 11.941406 28.195313 12.066406 C 28.894531 12.195313 29.515625 12.421875 30.058594 12.742188 C 30.597656 13.066406 31.027344 13.519531 31.351563 14.09375 C 31.675781 14.671875 31.839844 15.410156 31.839844 16.308594 C 31.839844 17.929688 31.351563 19.097656 30.378906 19.816406 C 29.40625 20.539063 28.164063 20.898438 26.652344 20.898438 L 18.066406 20.898438 Z M 32.890625 34.667969 C 32.550781 35.316406 32.089844 35.828125 31.515625 36.207031 C 30.9375 36.585938 30.273438 36.855469 29.515625 37.019531 C 28.761719 37.179688 27.96875 37.261719 27.140625 37.261719 L 18.066406 37.261719 L 18.066406 26.675781 L 27.300781 26.675781 C 29.140625 26.675781 30.613281 27.101563 31.730469 27.945313 C 32.847656 28.792969 33.40625 30.207031 33.40625 32.1875 C 33.402344 33.191406 33.230469 34.019531 32.890625 34.667969 Z "></path></g></svg>