<?xml version="1.0" encoding="UTF-8"?>
<svg xmlns="http://www.w3.org/2000/svg" xmlns:xlink="http://www.w3.org/1999/xlink" viewBox="0 0 24 24" version="1.1" width="16px" height="16px">
<g id="surface1">
<path style=" " d="M 17.375 6.84375 C 14.246094 6.84375 13.90625 9.460938 13.90625 10.125 L 15.90625 10.125 C 15.90625 8.476563 17.113281 8.4375 17.34375 8.4375 C 18.488281 8.4375 18.625 9.433594 18.625 9.875 C 18.625 11.207031 16.847656 12.488281 14.125 15.59375 L 14.125 16.9375 L 20.9375 16.9375 L 20.9375 15.34375 L 16.65625 15.34375 C 19.175781 12.691406 20.625 11.46875 20.625 9.6875 C 20.625 9.25 20.605469 6.84375 17.375 6.84375 Z M 3 7 L 3 17 L 5.28125 17 L 5.28125 12.71875 L 9.71875 12.71875 L 9.71875 17 L 12 17 L 12 7 L 9.71875 7 L 9.71875 11.0625 L 5.28125 11.0625 L 5.28125 7 Z "/>
</g>
</svg>
