<svg xmlns="http://www.w3.org/2000/svg" x="0px" y="0px"
     width="12" height="12"
     viewBox="0 0 24 24"><g id="surface1"><path style=" " d="M 4 0 L 4 13.6875 C 4 15.988281 4.6875 17.792969 6.1875 19.09375 C 7.6875 20.394531 9.605469 21 11.90625 21 C 14.304688 21 16.1875 20.394531 17.6875 19.09375 C 19.1875 17.792969 20 15.988281 20 13.6875 L 20 0 L 16.59375 0 L 16.59375 13.6875 C 16.59375 15.1875 16.113281 16.292969 15.3125 17.09375 C 14.414063 17.894531 13.304688 18.3125 11.90625 18.3125 C 10.507813 18.3125 9.394531 17.894531 8.59375 17.09375 C 7.792969 16.292969 7.40625 15.1875 7.40625 13.6875 L 7.40625 0 Z M 2 22 L 2 24 L 22 24 L 22 22 Z "></path></g></svg>